<svg role="img" aria-label="Translator: из хаоса в ясность" width="1024" xmlns="http://www.w3.org/2000/svg" height="1024" id="screenshot-652bcae8-da1b-8033-8008-be197b4e0f0b" viewBox="0 0 1024 1024" xmlns:xlink="http://www.w3.org/1999/xlink" fill="none" version="1.1"><g id="app-icon-light-64"><defs><clipPath id="frame-clip-652bcae8-da1b-8033-8008-be197b4e0f0b-render-1" class="frame-clip frame-clip-def"><rect rx="0" ry="0" x="0" y="0" width="1024" height="1024" transform="matrix(1.000000, 0.000000, 0.000000, 1.000000, 0.000000, 0.000000)"/></clipPath></defs><g class="frame-container-wrapper"><g class="frame-container-blur"><g class="frame-container-shadows"><g clip-path="url(#frame-clip-652bcae8-da1b-8033-8008-be197b4e0f0b-render-1)" fill="none"><g class="fills" id="fills-652bcae8-da1b-8033-8008-be197b4e0f0b"><rect rx="0" ry="0" x="0" y="0" width="1024" height="1024" transform="matrix(1.000000, 0.000000, 0.000000, 1.000000, 0.000000, 0.000000)" class="frame-background"/></g><g class="frame-children"><g id="app-icon-background"><g class="fills" id="fills-652bcae8-da1b-8033-8008-be197b57b7d4"><rect rx="226" ry="226" x="20" y="20" transform="matrix(1.000000, 0.000000, 0.000000, 1.000000, 0.000000, 0.000000)" width="984" height="984" style="fill: rgb(245, 242, 234); fill-opacity: 1;"/></g></g><g id="back-panel" rx="0" ry="0"><g id="back-panel-surface"><g class="fills" id="fills-652bcae8-da1b-8033-8008-be197b6267e6"><path d="M644,230C644,149,596,107,523,145L235,304C140,356,108,408,108,498L108,665C108,767,151,821,244,779L553,607C610,575,644,538,644,468Z" style="fill: rgb(32, 33, 36); fill-opacity: 1;"/></g></g></g><g id="chaos" rx="0" ry="0"><g id="chaos-01" rx="0" ry="0"><g id="cord-body-1"><g class="fills" id="fills-652bcae8-da1b-8033-8008-be197b6f92c3"><path d="M239,444C182,512,183,584,245,598C330,616,444,521,434,429C426,361,372,326,311,349C221,385,211,470,238,522C278,595,394,640,454,572"/></g><g id="strokes-0b261361-e1cc-8038-8008-be1e99e1ad39-652bcae8-da1b-8033-8008-be197b6f92c3" class="strokes"><g class="stroke-shape"><path d="M239,444C182,512,183,584,245,598C330,616,444,521,434,429C426,361,372,326,311,349C221,385,211,470,238,522C278,595,394,640,454,572" style="fill: none; stroke-width: 26; stroke: rgb(241, 241, 236); stroke-opacity: 1; stroke-linecap: round;"/></g></g></g></g><g id="chaos-02" rx="0" ry="0"><g id="cord-body-2"><g class="fills" id="fills-652bcae8-da1b-8033-8008-be197b7f03da"><path d="M224,427C160,464,162,549,212,584C299,651,430,584,456,492C487,382,424,350,373,363C300,379,268,496,327,553C376,596,442,607,481,552"/></g><g id="strokes-0b261361-e1cc-8038-8008-be1e99e236c7-652bcae8-da1b-8033-8008-be197b7f03da" class="strokes"><g class="stroke-shape"><path d="M224,427C160,464,162,549,212,584C299,651,430,584,456,492C487,382,424,350,373,363C300,379,268,496,327,553C376,596,442,607,481,552" style="fill: none; stroke-width: 26; stroke: rgb(241, 241, 236); stroke-opacity: 1; stroke-linecap: round;"/></g></g></g></g><g id="chaos-03" rx="0" ry="0"><g id="cord-body-3"><g class="fills" id="fills-652bcae8-da1b-8033-8008-be197b8d2bc4"><path d="M237,438C183,539,208,661,278,672C352,685,397,621,408,535C421,449,385,408,327,426C245,453,219,552,279,589C361,638,456,547,436,475"/></g><g id="strokes-0b261361-e1cc-8038-8008-be1e99e236c8-652bcae8-da1b-8033-8008-be197b8d2bc4" class="strokes"><g class="stroke-shape"><path d="M237,438C183,539,208,661,278,672C352,685,397,621,408,535C421,449,385,408,327,426C245,453,219,552,279,589C361,638,456,547,436,475" style="fill: none; stroke-width: 26; stroke: rgb(241, 241, 236); stroke-opacity: 1; stroke-linecap: round;"/></g></g></g></g><g id="chaos-04" rx="0" ry="0"><g id="cord-body-4"><g class="fills" id="fills-652bcae8-da1b-8033-8008-be197b9abe7d"><path d="M255,558C301,503,411,485,445,538C507,611,419,662,338,641C258,619,273,466,369,432C467,397,529,463,502,542C472,625,389,688,316,645"/></g><g id="strokes-0b261361-e1cc-8038-8008-be1e99e25481-652bcae8-da1b-8033-8008-be197b9abe7d" class="strokes"><g class="stroke-shape"><path d="M255,558C301,503,411,485,445,538C507,611,419,662,338,641C258,619,273,466,369,432C467,397,529,463,502,542C472,625,389,688,316,645" style="fill: none; stroke-width: 26; stroke: rgb(241, 241, 236); stroke-opacity: 1; stroke-linecap: round;"/></g></g></g></g><g id="chaos-05" rx="0" ry="0"><g id="cord-body-5"><g class="fills" id="fills-652bcae8-da1b-8033-8008-be197baa877f"><path d="M365,407C347,356,303,331,278,369C246,415,279,477,359,469C465,459,546,488,521,552C485,612,396,614,337,572C303,548,310,502,369,486"/></g><g id="strokes-0b261361-e1cc-8038-8008-be1e99e25482-652bcae8-da1b-8033-8008-be197baa877f" class="strokes"><g class="stroke-shape"><path d="M365,407C347,356,303,331,278,369C246,415,279,477,359,469C465,459,546,488,521,552C485,612,396,614,337,572C303,548,310,502,369,486" style="fill: none; stroke-width: 26; stroke: rgb(241, 241, 236); stroke-opacity: 1; stroke-linecap: round;"/></g></g></g></g></g><g id="front-panel" rx="0" ry="0"><g id="front-panel-surface"><g class="fills" id="fills-652bcae8-da1b-8033-8008-be197bb9c71a"><path d="M932,392C932,321,888,284,830,312L578,450C483,501,451,547,451,627L451,794C451,882,491,918,568,883L833,741C901,704,932,651,932,578Z" style="fill: rgb(245, 242, 234); fill-opacity: 1;"/></g></g></g><g id="text" rx="0" ry="0"><g id="line-1"><g class="fills" id="fills-652bcae8-da1b-8033-8008-be197bcd5c61"><rect rx="27" ry="27" x="554" y="544" transform="matrix(1.000000, 0.000000, 0.000000, 1.000000, 0.000000, 0.000000)" width="292" height="54" style="fill: rgb(18, 19, 21); fill-opacity: 1;"/></g></g><g id="line-2"><g class="fills" id="fills-652bcae8-da1b-8033-8008-be197be13f22"><rect rx="27" ry="27" x="554" y="641" transform="matrix(1.000000, 0.000000, 0.000000, 1.000000, 0.000000, 0.000000)" width="250" height="54" style="fill: rgb(18, 19, 21); fill-opacity: 1;"/></g></g><g id="line-3"><g class="fills" id="fills-652bcae8-da1b-8033-8008-be197bec0929"><rect rx="27" ry="27" x="554" y="738" transform="matrix(1.000000, 0.000000, 0.000000, 1.000000, 0.000000, 0.000000)" width="168" height="54" style="fill: rgb(18, 19, 21); fill-opacity: 1;"/></g></g></g></g></g></g></g></g></g></svg>