<svg role="img" aria-label="Translator: из хаоса в ясность" width="1024" xmlns="http://www.w3.org/2000/svg" height="1024" id="screenshot-652bcae8-da1b-8033-8008-be197d698378" viewBox="0 0 1024 1024" xmlns:xlink="http://www.w3.org/1999/xlink" fill="none" version="1.1"><style>#chaos { transform-box: fill-box; transform-origin: center; animation: clarify 1.4s cubic-bezier(.2,.75,.25,1) both; }
#front-panel { animation: forward 1s cubic-bezier(.2,.75,.25,1) both; }
#line-1, #line-2, #line-3 { transform-box: fill-box; transform-origin: left center; animation: reveal .55s cubic-bezier(.2,.75,.25,1) both; }
#line-1 { animation-delay: .35s; } #line-2 { animation-delay: .48s; } #line-3 { animation-delay: .61s; }
@keyframes clarify { 0% { opacity: .68; transform: rotate(-3deg) scale(1.04); } 55% { opacity: .92; transform: rotate(1deg) scale(.97); } 100% { opacity: 1; transform: none; } }
@keyframes forward { from { transform: translate(-8px,6px); } to { transform: none; } }
@keyframes reveal { from { opacity: 0; transform: scaleX(.15); } to { opacity: 1; transform: none; } }
@media (prefers-reduced-motion: reduce) { #chaos, #front-panel, #line-1, #line-2, #line-3 { animation: none; transform: none; opacity: 1; } }
</style><g id="symbol-full"><defs><clipPath id="frame-clip-652bcae8-da1b-8033-8008-be197d698378-render-1" class="frame-clip frame-clip-def"><rect rx="0" ry="0" x="0" y="0" width="1024" height="1024" transform="matrix(1.000000, 0.000000, 0.000000, 1.000000, 0.000000, 0.000000)"/></clipPath></defs><g class="frame-container-wrapper"><g class="frame-container-blur"><g class="frame-container-shadows"><g clip-path="url(#frame-clip-652bcae8-da1b-8033-8008-be197d698378-render-1)" fill="none"><g class="fills" id="fills-652bcae8-da1b-8033-8008-be197d698378"><rect rx="0" ry="0" x="0" y="0" width="1024" height="1024" transform="matrix(1.000000, 0.000000, 0.000000, 1.000000, 0.000000, 0.000000)" class="frame-background"/></g><g class="frame-children"><g id="back-panel" rx="0" ry="0"><g id="back-panel-surface"><g class="fills" id="fills-652bcae8-da1b-8033-8008-be197d758b2c"><path d="M644,230C644,149,596,107,523,145L235,304C140,356,108,408,108,498L108,665C108,767,151,821,244,779L553,607C610,575,644,538,644,468Z" style="fill: rgb(32, 33, 36); fill-opacity: 1;"/></g></g></g><g id="chaos" rx="0" ry="0"><g id="chaos-01" rx="0" ry="0"><g id="cord-body-1"><g class="fills" id="fills-652bcae8-da1b-8033-8008-be197d843ee6"><path d="M239,444C182,512,183,584,245,598C330,616,444,521,434,429C426,361,372,326,311,349C221,385,211,470,238,522C278,595,394,640,454,572"/></g><g id="strokes-adfc55ee-dde4-8012-8008-be1ea2bb8705-652bcae8-da1b-8033-8008-be197d843ee6" class="strokes"><g class="stroke-shape"><path d="M239,444C182,512,183,584,245,598C330,616,444,521,434,429C426,361,372,326,311,349C221,385,211,470,238,522C278,595,394,640,454,572" style="fill: none; stroke-width: 19; stroke: rgb(241, 241, 236); stroke-opacity: 1; stroke-linecap: round;"/></g></g></g></g><g id="chaos-02" rx="0" ry="0"><g id="cord-body-2"><g class="fills" id="fills-652bcae8-da1b-8033-8008-be197d90d29c"><path d="M224,427C160,464,162,549,212,584C299,651,430,584,456,492C487,382,424,350,373,363C300,379,268,496,327,553C376,596,442,607,481,552"/></g><g id="strokes-adfc55ee-dde4-8012-8008-be1ea2bbce6a-652bcae8-da1b-8033-8008-be197d90d29c" class="strokes"><g class="stroke-shape"><path d="M224,427C160,464,162,549,212,584C299,651,430,584,456,492C487,382,424,350,373,363C300,379,268,496,327,553C376,596,442,607,481,552" style="fill: none; stroke-width: 19; stroke: rgb(241, 241, 236); stroke-opacity: 1; stroke-linecap: round;"/></g></g></g></g><g id="chaos-03" rx="0" ry="0"><g id="cord-body-3"><g class="fills" id="fills-652bcae8-da1b-8033-8008-be197d9dee5f"><path d="M326,358C258,374,276,471,335,488C423,515,492,442,455,394C409,328,343,347,326,399C297,458,314,585,383,631C436,665,510,619,505,539"/></g><g id="strokes-adfc55ee-dde4-8012-8008-be1ea2bbce6b-652bcae8-da1b-8033-8008-be197d9dee5f" class="strokes"><g class="stroke-shape"><path d="M326,358C258,374,276,471,335,488C423,515,492,442,455,394C409,328,343,347,326,399C297,458,314,585,383,631C436,665,510,619,505,539" style="fill: none; stroke-width: 19; stroke: rgb(241, 241, 236); stroke-opacity: 1; stroke-linecap: round;"/></g></g></g></g><g id="chaos-04" rx="0" ry="0"><g id="cord-body-4"><g class="fills" id="fills-652bcae8-da1b-8033-8008-be197dabec49"><path d="M237,438C183,539,208,661,278,672C352,685,397,621,408,535C421,449,385,408,327,426C245,453,219,552,279,589C361,638,456,547,436,475"/></g><g id="strokes-adfc55ee-dde4-8012-8008-be1ea2bc2419-652bcae8-da1b-8033-8008-be197dabec49" class="strokes"><g class="stroke-shape"><path d="M237,438C183,539,208,661,278,672C352,685,397,621,408,535C421,449,385,408,327,426C245,453,219,552,279,589C361,638,456,547,436,475" style="fill: none; stroke-width: 19; stroke: rgb(241, 241, 236); stroke-opacity: 1; stroke-linecap: round;"/></g></g></g></g><g id="chaos-05" rx="0" ry="0"><g id="cord-body-5"><g class="fills" id="fills-652bcae8-da1b-8033-8008-be197db8b10a"><path d="M255,558C301,503,411,485,445,538C507,611,419,662,338,641C258,619,273,466,369,432C467,397,529,463,502,542C472,625,389,688,316,645"/></g><g id="strokes-adfc55ee-dde4-8012-8008-be1ea2bc241a-652bcae8-da1b-8033-8008-be197db8b10a" class="strokes"><g class="stroke-shape"><path d="M255,558C301,503,411,485,445,538C507,611,419,662,338,641C258,619,273,466,369,432C467,397,529,463,502,542C472,625,389,688,316,645" style="fill: none; stroke-width: 19; stroke: rgb(241, 241, 236); stroke-opacity: 1; stroke-linecap: round;"/></g></g></g></g><g id="chaos-06" rx="0" ry="0"><g id="cord-body-6"><g class="fills" id="fills-652bcae8-da1b-8033-8008-be197dcf8675"><path d="M365,407C347,356,303,331,278,369C246,415,279,477,359,469C465,459,546,488,521,552C485,612,396,614,337,572C303,548,310,502,369,486"/></g><g id="strokes-adfc55ee-dde4-8012-8008-be1ea2bc241b-652bcae8-da1b-8033-8008-be197dcf8675" class="strokes"><g class="stroke-shape"><path d="M365,407C347,356,303,331,278,369C246,415,279,477,359,469C465,459,546,488,521,552C485,612,396,614,337,572C303,548,310,502,369,486" style="fill: none; stroke-width: 19; stroke: rgb(241, 241, 236); stroke-opacity: 1; stroke-linecap: round;"/></g></g></g></g></g><g id="front-panel" rx="0" ry="0"><g id="front-panel-surface"><g class="fills" id="fills-652bcae8-da1b-8033-8008-be197de0d56d"><path d="M932,392C932,321,888,284,830,312L578,450C483,501,451,547,451,627L451,794C451,882,491,918,568,883L833,741C901,704,932,651,932,578Z" style="fill: rgb(245, 242, 234); fill-opacity: 1;"/></g></g></g><g id="text" rx="0" ry="0"><g id="line-1"><g class="fills" id="fills-652bcae8-da1b-8033-8008-be197deb52e4"><rect rx="22" ry="22" x="554" y="542" transform="matrix(1.000000, 0.000000, 0.000000, 1.000000, 0.000000, 0.000000)" width="292" height="44" style="fill: rgb(18, 19, 21); fill-opacity: 1;"/></g></g><g id="line-2"><g class="fills" id="fills-652bcae8-da1b-8033-8008-be197df27489"><rect rx="22" ry="22" x="554" y="629" transform="matrix(1.000000, 0.000000, 0.000000, 1.000000, 0.000000, 0.000000)" width="250" height="44" style="fill: rgb(18, 19, 21); fill-opacity: 1;"/></g></g><g id="line-3"><g class="fills" id="fills-652bcae8-da1b-8033-8008-be197dfa1c4a"><rect rx="22" ry="22" x="554" y="714" transform="matrix(1.000000, 0.000000, 0.000000, 1.000000, 0.000000, 0.000000)" width="168" height="44" style="fill: rgb(18, 19, 21); fill-opacity: 1;"/></g></g></g></g></g></g></g></g></g></svg>