<?xml version='1.0' encoding='utf-8'?>
<svg xmlns="http://www.w3.org/2000/svg" width="1024" height="1024" viewBox="0 0 1024 1024" fill="none" version="1.1"><g id="back-panel" rx="0" ry="0"><g id="back-panel-surface"><defs><linearGradient id="fill-color-gradient-render-7-0" x1="0.16" y1="0" x2="0.88" y2="1" gradientTransform=""><stop offset="0" stop-color="#3a3b3a" stop-opacity="1" /><stop offset="0.5" stop-color="#202122" stop-opacity="1" /><stop offset="1" stop-color="#111213" stop-opacity="1" /></linearGradient><pattern patternUnits="userSpaceOnUse" x="108" y="130.85597008947113" width="536" height="662.4741158004394" patternTransform="matrix(1.000000, 0.000000, 0.000000, 1.000000, 0.000000, 0.000000)" id="fill-0-render-7"><g><rect width="536" height="662.4741158004394" style="fill: url(&quot;#fill-color-gradient-render-7-0&quot;); fill-opacity: 1;" /></g></pattern></defs><g class="fills" id="fills-652bcae8-da1b-8033-8008-be187ce4e98c"><path d="M644,230C644,149,596,107,523,145L235,304C140,356,108,408,108,498L108,665C108,767,151,821,244,779L553,607C610,575,644,538,644,468Z" fill="url(#fill-0-render-7)" /></g><g id="strokes-d53234e6-1f4a-808f-8008-be1e905b3338-652bcae8-da1b-8033-8008-be187ce4e98c" class="strokes"><g class="inner-stroke-shape"><defs><linearGradient id="stroke-color-gradient-render-7-0" x1="0.16" y1="0" x2="0.88" y2="1" gradientTransform="matrix(1.000000, 0.000000, 0.000000, 1.000000, 0.000000, 0.000000)"><stop offset="0" stop-color="#868783" stop-opacity="1" /><stop offset="0.5" stop-color="#333532" stop-opacity="1" /><stop offset="1" stop-color="#111213" stop-opacity="1" /></linearGradient><clipPath id="inner-stroke-render-7-652bcae8-da1b-8033-8008-be187ce4e98c-0"><use href="#stroke-shape-render-7-652bcae8-da1b-8033-8008-be187ce4e98c-0" /></clipPath><path d="M644,230C644,149,596,107,523,145L235,304C140,356,108,408,108,498L108,665C108,767,151,821,244,779L553,607C610,575,644,538,644,468Z" id="stroke-shape-render-7-652bcae8-da1b-8033-8008-be187ce4e98c-0" style="fill: none; stroke-width: 5.6; stroke: url(&quot;#stroke-color-gradient-render-7-0&quot;); stroke-opacity: 0.48;" /></defs><use href="#stroke-shape-render-7-652bcae8-da1b-8033-8008-be187ce4e98c-0" clip-path="url('#inner-stroke-render-7-652bcae8-da1b-8033-8008-be187ce4e98c-0')" /></g></g></g></g></svg>